<mxfile host="" modified="2020-06-01T10:50:50.980Z" agent="5.0 (Windows NT 10.0; Win64; x64) AppleWebKit/537.36 (KHTML, like Gecko) Code/1.45.1 Chrome/78.0.3904.130 Electron/7.2.4 Safari/537.36" etag="7Am4vSESOVn9OY5hZ6_C" version="13.1.3" pages="2">
    <diagram id="fqV3emLRYbYZOK0m21yb" name="第 1 页">
        <mxGraphModel dx="817" dy="344" grid="1" gridSize="10" guides="1" tooltips="1" connect="1" arrows="1" fold="1" page="1" pageScale="1" pageWidth="827" pageHeight="1169" math="0" shadow="0">
            <root>
                <mxCell id="0"/>
                <mxCell id="1" parent="0"/>
                <mxCell id="3" value="其实" style="rounded=0;whiteSpace=wrap;html=1;" parent="1" vertex="1">
                    <mxGeometry x="280" y="30" width="250" height="100" as="geometry"/>
                </mxCell>
            </root>
        </mxGraphModel>
    </diagram>
    <diagram id="YR84RM1dUcfxYj5a8bTg" name="第 2 页">
        <mxGraphModel dx="817" dy="344" grid="1" gridSize="10" guides="1" tooltips="1" connect="1" arrows="1" fold="1" page="1" pageScale="1" pageWidth="827" pageHeight="1169" math="0" shadow="0">
            <root>
                <mxCell id="LM5SIAib_ZcmF-KGiAma-0"/>
                <mxCell id="LM5SIAib_ZcmF-KGiAma-1" parent="LM5SIAib_ZcmF-KGiAma-0"/>
            </root>
        </mxGraphModel>
    </diagram>
</mxfile>